<?xml version="1.0" encoding="UTF-8"?>
<!DOCTYPE svg PUBLIC "-//W3C//DTD SVG 1.1//EN" "http://www.w3.org/Graphics/SVG/1.1/DTD/svg11.dtd">
<svg xmlns="http://www.w3.org/2000/svg" version="1.1" width="9797px" height="11933px" style="shape-rendering:geometricPrecision; text-rendering:geometricPrecision; image-rendering:optimizeQuality; fill-rule:evenodd; clip-rule:evenodd" xmlns:xlink="http://www.w3.org/1999/xlink">
<g><path style="opacity:0.996" fill="#568a9d" d="M 4782.5,4061.5 C 4795.23,4061.84 4807.9,4063.01 4820.5,4065C 5946.91,4208.59 7073.24,4352.59 8199.5,4497C 6007.17,4497.67 3814.83,4497.67 1622.5,4497C 2675.86,4351.69 3729.19,4206.52 4782.5,4061.5 Z"/></g>
<g><path style="opacity:0.988" fill="#568a9d" d="M 4548.5,4795.5 C 4604.17,4795.5 4659.83,4795.5 4715.5,4795.5C 4715.5,4851.17 4715.5,4906.83 4715.5,4962.5C 4659.83,4962.5 4604.17,4962.5 4548.5,4962.5C 4548.5,4906.83 4548.5,4851.17 4548.5,4795.5 Z"/></g>
<g><path style="opacity:0.988" fill="#568a9d" d="M 4863.5,4795.5 C 4919.17,4795.5 4974.83,4795.5 5030.5,4795.5C 5030.5,4851.17 5030.5,4906.83 5030.5,4962.5C 4974.83,4962.5 4919.17,4962.5 4863.5,4962.5C 4863.5,4906.83 4863.5,4851.17 4863.5,4795.5 Z"/></g>
<g><path style="opacity:0.999" fill="#568a9d" d="M 7237.5,4911.5 C 7558.96,5611.77 7879.96,6312.44 8200.5,7013.5C 7558.83,7013.67 6917.17,7013.5 6275.5,7013C 6584.46,6339.58 6893.3,5666.08 7202,4992.5C 7212.67,4969.17 7223.33,4945.83 7234,4922.5C 7235.76,4918.99 7236.93,4915.32 7237.5,4911.5 Z"/></g>
<g><path style="opacity:0.999" fill="#568a9d" d="M 1622.5,4919.5 C 2181.5,4919.5 2740.5,4919.5 3299.5,4919.5C 3299.67,5488.83 3299.5,6058.17 3299,6627.5C 3291.94,6757.48 3236.77,6861.32 3133.5,6939C 3072.16,6982.48 3003.83,7007.14 2928.5,7013C 2616.83,7013.67 2305.17,7013.67 1993.5,7013C 1871.85,7002.11 1774.01,6948.61 1700,6852.5C 1654.4,6790.04 1628.73,6720.04 1623,6642.5C 1622.5,6068.17 1622.33,5493.83 1622.5,4919.5 Z"/></g>
<g><path style="opacity:0.998" fill="#568a9d" d="M 3824.5,4919.5 C 3827.39,4920.88 3829.89,4922.88 3832,4925.5C 3902,5004.83 3972,5084.17 4042,5163.5C 4289.18,5447.21 4536.34,5730.87 4783.5,6014.5C 5106.83,5649.5 5430.17,5284.5 5753.5,4919.5C 5754.5,5617.5 5754.83,6315.5 5754.5,7013.5C 5111.17,7013.5 4467.83,7013.5 3824.5,7013.5C 3824.5,6315.5 3824.5,5617.5 3824.5,4919.5 Z"/></g>
<g><path style="opacity:0.99" fill="#568a9d" d="M 4548.5,5069.5 C 4604.17,5069.5 4659.83,5069.5 4715.5,5069.5C 4715.5,5125.17 4715.5,5180.83 4715.5,5236.5C 4659.83,5236.5 4604.17,5236.5 4548.5,5236.5C 4548.5,5180.83 4548.5,5125.17 4548.5,5069.5 Z"/></g>
<g><path style="opacity:0.99" fill="#568a9d" d="M 4863.5,5069.5 C 4919.17,5069.5 4974.83,5069.5 5030.5,5069.5C 5030.5,5125.17 5030.5,5180.83 5030.5,5236.5C 4974.83,5236.5 4919.17,5236.5 4863.5,5236.5C 4863.5,5180.83 4863.5,5125.17 4863.5,5069.5 Z"/></g>
<g><path style="opacity:0.975" fill="#568a9d" d="M 1854.5,7344.5 C 1898.16,7340.47 1939.49,7348.3 1978.5,7368C 1998.01,7379.84 2014.67,7394.84 2028.5,7413C 2017.32,7422.18 2006.16,7431.35 1995,7440.5C 1972.31,7408.88 1941.47,7390.05 1902.5,7384C 1838.42,7375.8 1784.25,7394.97 1740,7441.5C 1704.21,7487.32 1689.54,7539.32 1696,7597.5C 1701.47,7648.96 1723.64,7691.46 1762.5,7725C 1808.75,7759.06 1860.09,7770.06 1916.5,7758C 1954.02,7747.76 1984.02,7726.93 2006.5,7695.5C 2018.08,7703.45 2029.08,7712.12 2039.5,7721.5C 2005.51,7768.85 1959.17,7795.01 1900.5,7800C 1839.61,7805.7 1784.61,7790.7 1735.5,7755C 1688.96,7715.69 1662.12,7665.52 1655,7604.5C 1646.85,7539.1 1661.85,7479.76 1700,7426.5C 1739.98,7377.76 1791.48,7350.42 1854.5,7344.5 Z"/></g>
<g><path style="opacity:0.977" fill="#568a9d" d="M 2450.5,7344.5 C 2510.33,7339.2 2564.66,7353.7 2613.5,7388C 2659.43,7425 2686.93,7472.83 2696,7531.5C 2706.24,7596.87 2693.24,7657.21 2657,7712.5C 2617.52,7765.17 2564.69,7794.34 2498.5,7800C 2440.74,7805.64 2387.74,7792.64 2339.5,7761C 2284.82,7718.85 2254.99,7663.02 2250,7593.5C 2244.41,7525.96 2263.07,7466.29 2306,7414.5C 2345.33,7373.08 2393.5,7349.75 2450.5,7344.5 Z M 2453.5,7382.5 C 2516.71,7376.62 2569.88,7396.62 2613,7442.5C 2646.36,7484.93 2661.03,7533.26 2657,7587.5C 2653.81,7645.71 2629.65,7692.88 2584.5,7729C 2545.05,7756.11 2501.39,7767.11 2453.5,7762C 2382.44,7753.91 2332.94,7717.08 2305,7651.5C 2282.52,7588.72 2286.52,7527.72 2317,7468.5C 2348.39,7417.71 2393.89,7389.04 2453.5,7382.5 Z"/></g>
<g><path style="opacity:0.976" fill="#568a9d" d="M 3699.5,7344.5 C 3734.67,7341.08 3768.01,7347.25 3799.5,7363C 3814.77,7372.61 3827.77,7384.61 3838.5,7399C 3827.27,7408.05 3815.61,7416.55 3803.5,7424.5C 3796.5,7416.67 3789.17,7409.17 3781.5,7402C 3757.82,7385.26 3731.49,7378.93 3702.5,7383C 3673.45,7385.6 3650.28,7398.44 3633,7421.5C 3620.99,7442.99 3618.32,7465.66 3625,7489.5C 3628.9,7502.79 3636.4,7513.62 3647.5,7522C 3656.17,7528.67 3665.5,7534.34 3675.5,7539C 3701.64,7549.27 3728.3,7557.93 3755.5,7565C 3834.23,7591.96 3861.4,7645.46 3837,7725.5C 3821.41,7760.42 3795.25,7783.25 3758.5,7794C 3707.6,7807.05 3658.94,7801.39 3612.5,7777C 3595.07,7765.73 3580.4,7751.57 3568.5,7734.5C 3581.33,7725.59 3594.33,7716.92 3607.5,7708.5C 3634.4,7749.94 3672.73,7767.77 3722.5,7762C 3747.75,7758.96 3768.92,7748.12 3786,7729.5C 3801.86,7709.04 3807.2,7686.04 3802,7660.5C 3797.22,7642.06 3786.72,7627.89 3770.5,7618C 3762.78,7613.47 3754.78,7609.47 3746.5,7606C 3719.17,7596.67 3691.83,7587.33 3664.5,7578C 3602.77,7556.4 3574.94,7512.9 3581,7447.5C 3587.98,7404.52 3611.48,7374.35 3651.5,7357C 3667.14,7350.93 3683.14,7346.76 3699.5,7344.5 Z"/></g>
<g><path style="opacity:0.975" fill="#568a9d" d="M 5903.5,7344.5 C 5947.16,7340.47 5988.49,7348.3 6027.5,7368C 6047.01,7379.84 6063.67,7394.84 6077.5,7413C 6066.32,7422.18 6055.16,7431.35 6044,7440.5C 6021.31,7408.88 5990.47,7390.05 5951.5,7384C 5887.42,7375.8 5833.25,7394.97 5789,7441.5C 5753.21,7487.32 5738.54,7539.32 5745,7597.5C 5750.47,7648.96 5772.64,7691.46 5811.5,7725C 5857.75,7759.06 5909.09,7770.06 5965.5,7758C 6003.02,7747.76 6033.02,7726.93 6055.5,7695.5C 6067.08,7703.45 6078.08,7712.12 6088.5,7721.5C 6054.51,7768.85 6008.17,7795.01 5949.5,7800C 5888.61,7805.7 5833.61,7790.7 5784.5,7755C 5737.96,7715.69 5711.12,7665.52 5704,7604.5C 5695.85,7539.1 5710.85,7479.76 5749,7426.5C 5788.98,7377.76 5840.48,7350.42 5903.5,7344.5 Z"/></g>
<g><path style="opacity:0.977" fill="#568a9d" d="M 7340.5,7344.5 C 7400.33,7339.2 7454.66,7353.7 7503.5,7388C 7549.43,7425 7576.93,7472.83 7586,7531.5C 7596.24,7596.87 7583.24,7657.21 7547,7712.5C 7507.52,7765.17 7454.69,7794.34 7388.5,7800C 7330.74,7805.64 7277.74,7792.64 7229.5,7761C 7174.82,7718.85 7144.99,7663.02 7140,7593.5C 7134.41,7525.96 7153.07,7466.29 7196,7414.5C 7235.33,7373.08 7283.5,7349.75 7340.5,7344.5 Z M 7343.5,7382.5 C 7406.71,7376.62 7459.88,7396.62 7503,7442.5C 7536.36,7484.93 7551.03,7533.26 7547,7587.5C 7543.81,7645.71 7519.65,7692.88 7474.5,7729C 7435.05,7756.11 7391.39,7767.11 7343.5,7762C 7272.44,7753.91 7222.94,7717.08 7195,7651.5C 7172.52,7588.72 7176.52,7527.72 7207,7468.5C 7238.39,7417.71 7283.89,7389.04 7343.5,7382.5 Z"/></g>
<g><path style="opacity:0.98" fill="#568a9d" d="M 2953.5,7355.5 C 2971.51,7355.17 2989.51,7355.5 3007.5,7356.5C 3094.81,7482.3 3182.31,7607.97 3270,7733.5C 3270.5,7607.5 3270.67,7481.5 3270.5,7355.5C 3284.5,7355.5 3298.5,7355.5 3312.5,7355.5C 3312.5,7500.17 3312.5,7644.83 3312.5,7789.5C 3294.26,7789.83 3276.09,7789.49 3258,7788.5C 3170.33,7662.17 3082.67,7535.83 2995,7409.5C 2994.5,7536.17 2994.33,7662.83 2994.5,7789.5C 2980.83,7789.5 2967.17,7789.5 2953.5,7789.5C 2953.5,7644.83 2953.5,7500.17 2953.5,7355.5 Z"/></g>
<g><path style="opacity:0.982" fill="#568a9d" d="M 4049.5,7355.5 C 4162.17,7355.5 4274.83,7355.5 4387.5,7355.5C 4387.5,7367.83 4387.5,7380.17 4387.5,7392.5C 4338.17,7392.5 4288.83,7392.5 4239.5,7392.5C 4239.5,7524.83 4239.5,7657.17 4239.5,7789.5C 4225.5,7789.5 4211.5,7789.5 4197.5,7789.5C 4197.5,7657.17 4197.5,7524.83 4197.5,7392.5C 4148.17,7392.5 4098.83,7392.5 4049.5,7392.5C 4049.5,7380.17 4049.5,7367.83 4049.5,7355.5 Z"/></g>
<g><path style="opacity:0.986" fill="#568a9d" d="M 4617.5,7355.5 C 4665.83,7355.33 4714.17,7355.5 4762.5,7356C 4783.12,7357.49 4803.12,7361.82 4822.5,7369C 4857.18,7383.19 4878.01,7408.69 4885,7445.5C 4887.47,7465.28 4886.81,7484.95 4883,7504.5C 4870.53,7540.97 4845.69,7564.47 4808.5,7575C 4797.97,7577.97 4787.3,7580.3 4776.5,7582C 4818.5,7651 4860.5,7720 4902.5,7789C 4886.49,7789.83 4870.49,7789.67 4854.5,7788.5C 4814.17,7720.5 4773.83,7652.5 4733.5,7584.5C 4708.51,7583.5 4683.51,7583.17 4658.5,7583.5C 4658.5,7652.17 4658.5,7720.83 4658.5,7789.5C 4644.83,7789.5 4631.17,7789.5 4617.5,7789.5C 4617.5,7644.83 4617.5,7500.17 4617.5,7355.5 Z M 4658.5,7392.5 C 4693.85,7392.16 4729.18,7392.66 4764.5,7394C 4792.95,7395.97 4816.12,7407.81 4834,7429.5C 4849.85,7457.58 4849.18,7485.25 4832,7512.5C 4813.98,7532.26 4791.48,7543.09 4764.5,7545C 4729.18,7546.34 4693.85,7546.84 4658.5,7546.5C 4658.5,7495.17 4658.5,7443.83 4658.5,7392.5 Z"/></g>
<g><path style="opacity:0.986" fill="#568a9d" d="M 5138.5,7355.5 C 5152.17,7355.5 5165.83,7355.5 5179.5,7355.5C 5179.33,7442.5 5179.5,7529.5 5180,7616.5C 5180.03,7644.02 5184.69,7670.68 5194,7696.5C 5213.42,7741.55 5247.75,7763.55 5297,7762.5C 5353.57,7762.28 5389.91,7734.94 5406,7680.5C 5410.44,7662.43 5413.11,7644.1 5414,7625.5C 5414.5,7535.5 5414.67,7445.5 5414.5,7355.5C 5428.17,7355.5 5441.83,7355.5 5455.5,7355.5C 5455.67,7452.17 5455.5,7548.83 5455,7645.5C 5445.28,7755.88 5385.11,7807.38 5274.5,7800C 5202.69,7791.19 5159.19,7751.36 5144,7680.5C 5141.43,7667.62 5139.76,7654.62 5139,7641.5C 5138.5,7546.17 5138.33,7450.83 5138.5,7355.5 Z"/></g>
<g><path style="opacity:0.982" fill="#568a9d" d="M 6274.5,7355.5 C 6387.17,7355.5 6499.83,7355.5 6612.5,7355.5C 6612.5,7367.83 6612.5,7380.17 6612.5,7392.5C 6563.17,7392.5 6513.83,7392.5 6464.5,7392.5C 6464.5,7524.83 6464.5,7657.17 6464.5,7789.5C 6450.5,7789.5 6436.5,7789.5 6422.5,7789.5C 6422.5,7657.17 6422.5,7524.83 6422.5,7392.5C 6373.17,7392.5 6323.83,7392.5 6274.5,7392.5C 6274.5,7380.17 6274.5,7367.83 6274.5,7355.5 Z"/></g>
<g><path style="opacity:0.994" fill="#568a9d" d="M 6843.5,7355.5 C 6857.17,7355.5 6870.83,7355.5 6884.5,7355.5C 6884.5,7500.17 6884.5,7644.83 6884.5,7789.5C 6870.83,7789.5 6857.17,7789.5 6843.5,7789.5C 6843.5,7644.83 6843.5,7500.17 6843.5,7355.5 Z"/></g>
<g><path style="opacity:0.98" fill="#568a9d" d="M 7843.5,7355.5 C 7861.51,7355.17 7879.51,7355.5 7897.5,7356.5C 7984.81,7482.3 8072.31,7607.97 8160,7733.5C 8160.5,7607.5 8160.67,7481.5 8160.5,7355.5C 8174.5,7355.5 8188.5,7355.5 8202.5,7355.5C 8202.5,7500.17 8202.5,7644.83 8202.5,7789.5C 8184.26,7789.83 8166.09,7789.49 8148,7788.5C 8060.33,7662.17 7972.67,7535.83 7885,7409.5C 7884.5,7536.17 7884.33,7662.83 7884.5,7789.5C 7870.83,7789.5 7857.17,7789.5 7843.5,7789.5C 7843.5,7644.83 7843.5,7500.17 7843.5,7355.5 Z"/></g>
</svg>
