<?xml version="1.0" encoding="UTF-8"?>
<!DOCTYPE svg PUBLIC "-//W3C//DTD SVG 1.1//EN" "http://www.w3.org/Graphics/SVG/1.1/DTD/svg11.dtd">
<svg xmlns="http://www.w3.org/2000/svg" version="1.1" width="9797px" height="11933px" style="shape-rendering:geometricPrecision; text-rendering:geometricPrecision; image-rendering:optimizeQuality; fill-rule:evenodd; clip-rule:evenodd" xmlns:xlink="http://www.w3.org/1999/xlink">
<g><path style="opacity:0.996" fill="#fefffe" d="M 4684.5,4277.5 C 5821.97,4421.85 6959.3,4567.02 8096.5,4713C 5905.5,4713.67 3714.5,4713.67 1523.5,4713C 2577.28,4567.77 3630.95,4422.6 4684.5,4277.5 Z"/></g>
<g><path style="opacity:0.998" fill="#fefffe" d="M 7135.5,5129.5 C 7137.34,5130.12 7138.5,5131.46 7139,5133.5C 7458.56,5831.62 7778.39,6529.62 8098.5,7227.5C 7457.17,7228.83 6815.83,7228.83 6174.5,7227.5C 6494.85,6528.15 6815.18,5828.81 7135.5,5129.5 Z"/></g>
<g><path style="opacity:0.999" fill="#fefffe" d="M 1523.5,5134.5 C 2082.17,5134.5 2640.83,5134.5 3199.5,5134.5C 3199.67,5708.5 3199.5,6282.5 3199,6856.5C 3187.77,6982.17 3131.6,7082.01 3030.5,7156C 2965.59,7200.75 2893.59,7224.75 2814.5,7228C 2512.83,7228.67 2211.17,7228.67 1909.5,7228C 1777.92,7220.48 1673.42,7163.98 1596,7058.5C 1549.58,6991.22 1525.58,6916.55 1524,6834.5C 1523.5,6267.83 1523.33,5701.17 1523.5,5134.5 Z"/></g>
<g><path style="opacity:0.998" fill="#fefffe" d="M 3725.5,5134.5 C 3766.12,5179.05 3806.29,5224.05 3846,5269.5C 4125.75,5589.24 4404.75,5909.58 4683,6230.5C 5006.38,5865.29 5329.55,5499.96 5652.5,5134.5C 5653.5,5832.5 5653.83,6530.5 5653.5,7228.5C 5010.83,7228.5 4368.17,7228.5 3725.5,7228.5C 3725.5,6530.5 3725.5,5832.5 3725.5,5134.5 Z"/></g>
<g><path style="opacity:0.976" fill="#fefffe" d="M 1759.5,7558.5 C 1802.58,7554.96 1843.25,7563.12 1881.5,7583C 1899.42,7593.57 1914.92,7607.07 1928,7623.5C 1928.98,7624.76 1929.32,7626.09 1929,7627.5C 1918.6,7637.07 1907.77,7646.07 1896.5,7654.5C 1873.73,7622.44 1842.73,7603.6 1803.5,7598C 1739.75,7590.02 1685.91,7609.19 1642,7655.5C 1606.21,7701.31 1591.54,7753.31 1598,7811.5C 1604.62,7873.63 1634.12,7921.13 1686.5,7954C 1738.66,7981.54 1792,7984.2 1846.5,7962C 1871.61,7949.89 1892.11,7932.39 1908,7909.5C 1918.83,7917.67 1929.67,7925.83 1940.5,7934C 1941.45,7934.72 1941.62,7935.55 1941,7936.5C 1906.53,7983.5 1860.03,8009.33 1801.5,8014C 1738.46,8019.83 1682.13,8003.5 1632.5,7965C 1586.1,7923.35 1560.6,7871.19 1556,7808.5C 1550.25,7744.11 1566.92,7686.44 1606,7635.5C 1646.68,7589.2 1697.85,7563.53 1759.5,7558.5 Z"/></g>
<g><path style="opacity:0.977" fill="#fefffe" d="M 2355.5,7558.5 C 2418.27,7553.68 2474.27,7570.51 2523.5,7609C 2567.29,7648.74 2592.46,7698.24 2599,7757.5C 2606.76,7826.2 2589.42,7887.53 2547,7941.5C 2510.06,7982.06 2464.23,8005.89 2409.5,8013C 2345.3,8021.5 2286.97,8007.17 2234.5,7970C 2187.39,7930.96 2160.22,7880.8 2153,7819.5C 2143.88,7747.61 2162.21,7683.94 2208,7628.5C 2248.33,7586.75 2297.5,7563.42 2355.5,7558.5 Z M 2355.5,7596.5 C 2406.31,7591.78 2451.98,7604.61 2492.5,7635C 2529.29,7666.73 2550.79,7706.9 2557,7755.5C 2564.37,7809.35 2553.37,7859.02 2524,7904.5C 2492.62,7946.28 2450.79,7970.12 2398.5,7976C 2333.81,7983.22 2279.64,7963.06 2236,7915.5C 2203.57,7873.49 2189.24,7825.82 2193,7772.5C 2195.94,7719.13 2216.78,7674.29 2255.5,7638C 2284.64,7614.12 2317.98,7600.28 2355.5,7596.5 Z"/></g>
<g><path style="opacity:0.976" fill="#fefffe" d="M 3603.5,7558.5 C 3638.07,7555.71 3670.74,7562.21 3701.5,7578C 3716.37,7587.2 3729.04,7598.87 3739.5,7613C 3728.09,7622.12 3716.26,7630.62 3704,7638.5C 3676.63,7603.37 3640.79,7589.87 3596.5,7598C 3562.81,7602.72 3539.31,7620.56 3526,7651.5C 3519.74,7674.63 3521.74,7696.96 3532,7718.5C 3544.27,7734.43 3559.77,7746.26 3578.5,7754C 3589.39,7758.28 3600.39,7762.28 3611.5,7766C 3640.94,7772.59 3668.94,7782.92 3695.5,7797C 3717.72,7810.21 3732.88,7829.04 3741,7853.5C 3745.69,7873.97 3746.69,7894.64 3744,7915.5C 3737.1,7951.84 3717.6,7979 3685.5,7997C 3651.92,8013.45 3616.58,8018.78 3579.5,8013C 3537.14,8008.24 3502.3,7989.74 3475,7957.5C 3472.79,7954.91 3470.95,7952.07 3469.5,7949C 3482.04,7939.81 3494.88,7930.97 3508,7922.5C 3530.76,7959.14 3563.93,7977.48 3607.5,7977.5C 3637.23,7977.21 3662.73,7966.88 3684,7946.5C 3706.57,7918.5 3710.24,7888.16 3695,7855.5C 3682.56,7838.74 3666.39,7826.91 3646.5,7820C 3621.9,7811.47 3597.23,7803.13 3572.5,7795C 3493.21,7767.58 3465.37,7713.42 3489,7632.5C 3504.65,7598.52 3530.48,7576.35 3566.5,7566C 3578.78,7562.51 3591.11,7560.01 3603.5,7558.5 Z"/></g>
<g><path style="opacity:0.976" fill="#fefffe" d="M 5805.5,7558.5 C 5850.72,7554.81 5893.05,7563.98 5932.5,7586C 5948.88,7596.71 5963.04,7609.87 5975,7625.5C 5975.67,7626.17 5975.67,7626.83 5975,7627.5C 5964.6,7637.07 5953.77,7646.07 5942.5,7654.5C 5912.98,7615.32 5873.48,7595.99 5824,7596.5C 5759.6,7596.53 5709.26,7622.86 5673,7675.5C 5643.83,7725.82 5635.5,7779.48 5648,7836.5C 5666.18,7911.68 5713.01,7957.51 5788.5,7974C 5847.25,7984.63 5897.75,7969.13 5940,7927.5C 5944.67,7921.5 5949.33,7915.5 5954,7909.5C 5964.74,7917.79 5975.58,7925.95 5986.5,7934C 5987.45,7934.72 5987.62,7935.55 5987,7936.5C 5952.53,7983.5 5906.03,8009.33 5847.5,8014C 5785.04,8019.73 5729.04,8003.73 5679.5,7966C 5632.81,7924.46 5606.98,7872.29 5602,7809.5C 5596.04,7744.75 5612.71,7686.75 5652,7635.5C 5692.58,7588.96 5743.74,7563.3 5805.5,7558.5 Z"/></g>
<g><path style="opacity:0.977" fill="#fefffe" d="M 7241.5,7558.5 C 7303.77,7553.54 7359.44,7570.04 7408.5,7608C 7452.82,7647.13 7478.32,7696.29 7485,7755.5C 7492.36,7818.06 7478.69,7875.39 7444,7927.5C 7406.77,7976.72 7357.27,8005.22 7295.5,8013C 7238.73,8020.38 7185.73,8009.71 7136.5,7981C 7079.28,7941.67 7046.78,7887.17 7039,7817.5C 7031.22,7751.96 7046.55,7692.62 7085,7639.5C 7113.81,7603.99 7150.31,7579.83 7194.5,7567C 7210.11,7563.07 7225.78,7560.23 7241.5,7558.5 Z M 7241.5,7596.5 C 7303.55,7590.68 7356.05,7610.01 7399,7654.5C 7430.05,7692.8 7445.55,7736.8 7445.5,7786.5C 7445.47,7835.1 7430.64,7878.43 7401,7916.5C 7363.71,7956.97 7317.38,7977.3 7262,7977.5C 7173.15,7974.94 7114.82,7931.6 7087,7847.5C 7073.57,7797.47 7076.57,7748.47 7096,7700.5C 7125.39,7639.21 7173.89,7604.55 7241.5,7596.5 Z"/></g>
<g><path style="opacity:0.98" fill="#fefffe" d="M 2854.5,7569.5 C 2872.74,7569.17 2890.91,7569.51 2909,7570.5C 2996.67,7696.83 3084.33,7823.17 3172,7949.5C 3172.5,7822.83 3172.67,7696.17 3172.5,7569.5C 3186.17,7569.5 3199.83,7569.5 3213.5,7569.5C 3213.5,7714.17 3213.5,7858.83 3213.5,8003.5C 3195.49,8003.83 3177.49,8003.5 3159.5,8002.5C 3071.81,7876.64 2984.31,7750.64 2897,7624.5C 2896.5,7750.83 2896.33,7877.17 2896.5,8003.5C 2882.5,8003.5 2868.5,8003.5 2854.5,8003.5C 2854.5,7858.83 2854.5,7714.17 2854.5,7569.5 Z"/></g>
<g><path style="opacity:0.981" fill="#fefffe" d="M 3949.5,7569.5 C 4062.17,7569.5 4174.83,7569.5 4287.5,7569.5C 4287.5,7582.17 4287.5,7594.83 4287.5,7607.5C 4237.83,7607.5 4188.17,7607.5 4138.5,7607.5C 4138.5,7739.5 4138.5,7871.5 4138.5,8003.5C 4124.83,8003.5 4111.17,8003.5 4097.5,8003.5C 4097.5,7871.5 4097.5,7739.5 4097.5,7607.5C 4048.17,7607.5 3998.83,7607.5 3949.5,7607.5C 3949.5,7594.83 3949.5,7582.17 3949.5,7569.5 Z"/></g>
<g><path style="opacity:0.975" fill="#fefffe" d="M 4517.5,7569.5 C 4564.17,7569.33 4610.83,7569.5 4657.5,7570C 4686.88,7571.02 4714.55,7578.35 4740.5,7592C 4764.71,7608.23 4779.54,7630.73 4785,7659.5C 4787.47,7679.28 4786.81,7698.95 4783,7718.5C 4770.45,7755.38 4745.29,7778.88 4707.5,7789C 4697.27,7791.81 4686.94,7794.14 4676.5,7796C 4718.5,7865 4760.5,7934 4802.5,8003C 4786.49,8003.83 4770.49,8003.67 4754.5,8002.5C 4714.29,7934.58 4673.96,7866.75 4633.5,7799C 4608.84,7798.5 4584.17,7798.33 4559.5,7798.5C 4559.5,7866.83 4559.5,7935.17 4559.5,8003.5C 4545.5,8003.5 4531.5,8003.5 4517.5,8003.5C 4517.5,7858.83 4517.5,7714.17 4517.5,7569.5 Z M 4559.5,7607.5 C 4594.5,7607.33 4629.5,7607.5 4664.5,7608C 4692.89,7609.94 4716.06,7621.78 4734,7643.5C 4749.57,7671.02 4749.24,7698.36 4733,7725.5C 4719.32,7742.14 4701.82,7752.64 4680.5,7757C 4672.91,7758.56 4665.24,7759.56 4657.5,7760C 4624.84,7760.5 4592.17,7760.67 4559.5,7760.5C 4559.5,7709.5 4559.5,7658.5 4559.5,7607.5 Z"/></g>
<g><path style="opacity:0.978" fill="#fefffe" d="M 5037.5,7569.5 C 5051.5,7569.5 5065.5,7569.5 5079.5,7569.5C 5079.33,7662.5 5079.5,7755.5 5080,7848.5C 5080.86,7880.98 5090.19,7910.64 5108,7937.5C 5130.62,7965.56 5160.12,7978.89 5196.5,7977.5C 5251.53,7976.63 5287.37,7949.97 5304,7897.5C 5309.21,7878.18 5312.21,7858.51 5313,7838.5C 5313.5,7748.83 5313.67,7659.17 5313.5,7569.5C 5327.17,7569.5 5340.83,7569.5 5354.5,7569.5C 5354.67,7665.83 5354.5,7762.17 5354,7858.5C 5344.88,7968.96 5285.05,8020.79 5174.5,8014C 5101.69,8005.53 5057.86,7965.36 5043,7893.5C 5040.43,7879.94 5038.76,7866.28 5038,7852.5C 5037.5,7758.17 5037.33,7663.83 5037.5,7569.5 Z"/></g>
<g><path style="opacity:0.985" fill="#fefffe" d="M 6173.5,7569.5 C 6286.17,7569.5 6398.83,7569.5 6511.5,7569.5C 6511.5,7582.17 6511.5,7594.83 6511.5,7607.5C 6461.83,7607.5 6412.17,7607.5 6362.5,7607.5C 6362.5,7739.5 6362.5,7871.5 6362.5,8003.5C 6348.83,8003.5 6335.17,8003.5 6321.5,8003.5C 6321.5,7871.5 6321.5,7739.5 6321.5,7607.5C 6272.17,7607.5 6222.83,7607.5 6173.5,7607.5C 6173.5,7594.83 6173.5,7582.17 6173.5,7569.5 Z"/></g>
<g><path style="opacity:0.987" fill="#fefffe" d="M 6741.5,7569.5 C 6755.17,7569.5 6768.83,7569.5 6782.5,7569.5C 6782.5,7714.17 6782.5,7858.83 6782.5,8003.5C 6768.83,8003.5 6755.17,8003.5 6741.5,8003.5C 6741.5,7858.83 6741.5,7714.17 6741.5,7569.5 Z"/></g>
<g><path style="opacity:0.984" fill="#fefffe" d="M 7741.5,7569.5 C 7759.41,7569.17 7777.24,7569.51 7795,7570.5C 7882.28,7696.78 7969.94,7822.78 8058,7948.5C 8058.5,7822.17 8058.67,7695.83 8058.5,7569.5C 8072.17,7569.5 8085.83,7569.5 8099.5,7569.5C 8099.5,7714.17 8099.5,7858.83 8099.5,8003.5C 8081.83,8003.67 8064.16,8003.5 8046.5,8003C 7958.28,7877.11 7870.44,7750.94 7783,7624.5C 7782.5,7750.83 7782.33,7877.17 7782.5,8003.5C 7768.83,8003.5 7755.17,8003.5 7741.5,8003.5C 7741.5,7858.83 7741.5,7714.17 7741.5,7569.5 Z"/></g>
</svg>
