<?xml version="1.0" encoding="UTF-8"?>
<!DOCTYPE svg PUBLIC "-//W3C//DTD SVG 1.1//EN" "http://www.w3.org/Graphics/SVG/1.1/DTD/svg11.dtd">
<svg xmlns="http://www.w3.org/2000/svg" version="1.1" width="9797px" height="11933px" style="shape-rendering:geometricPrecision; text-rendering:geometricPrecision; image-rendering:optimizeQuality; fill-rule:evenodd; clip-rule:evenodd" xmlns:xlink="http://www.w3.org/1999/xlink">
<g><path style="opacity:0.996" fill="#fefffe" d="M 4840.5,4064.5 C 5977.26,4209.01 7113.93,4354.18 8250.5,4500C 6059.83,4500.67 3869.17,4500.67 1678.5,4500C 2732.61,4354.67 3786.61,4209.51 4840.5,4064.5 Z"/></g>
<g><path style="opacity:0.993" fill="#fefffe" d="M 4602.5,4798.5 C 4658.17,4798.5 4713.83,4798.5 4769.5,4798.5C 4769.5,4853.83 4769.5,4909.17 4769.5,4964.5C 4713.83,4964.5 4658.17,4964.5 4602.5,4964.5C 4602.5,4909.17 4602.5,4853.83 4602.5,4798.5 Z"/></g>
<g><path style="opacity:0.991" fill="#fefffe" d="M 4917.5,4798.5 C 4973.17,4798.5 5028.83,4798.5 5084.5,4798.5C 5084.5,4853.83 5084.5,4909.17 5084.5,4964.5C 5028.83,4964.5 4973.17,4964.5 4917.5,4964.5C 4917.5,4909.17 4917.5,4853.83 4917.5,4798.5 Z"/></g>
<g><path style="opacity:0.998" fill="#fefffe" d="M 7289.5,4914.5 C 7292.28,4914.09 7292.94,4914.92 7291.5,4917C 7293.47,4921.11 7295.3,4925.27 7297,4929.5C 7615.5,5624.5 7934,6319.5 8252.5,7014.5C 7611.17,7015.67 6969.83,7015.83 6328.5,7015C 6647.13,6320.24 6965.63,5625.41 7284,4930.5C 7285.39,4926.71 7287.06,4923.05 7289,4919.5C 7289.49,4917.87 7289.66,4916.2 7289.5,4914.5 Z"/></g>
<g><path style="opacity:0.999" fill="#fefffe" d="M 1678.5,4921.5 C 2237.17,4921.5 2795.83,4921.5 3354.5,4921.5C 3354.67,5491.5 3354.5,6061.5 3354,6631.5C 3346.57,6759.56 3292.07,6862.06 3190.5,6939C 3125.54,6985.77 3052.87,7011.1 2972.5,7015C 2668.5,7015.67 2364.5,7015.67 2060.5,7015C 1930.66,7006.68 1827.49,6950.52 1751,6846.5C 1707.95,6784.7 1683.95,6716.03 1679,6640.5C 1678.5,6067.5 1678.33,5494.5 1678.5,4921.5 Z"/></g>
<g><path style="opacity:0.999" fill="#fefffe" d="M 3879.5,4921.5 C 3920.84,4966.67 3961.67,5012.34 4002,5058.5C 4281.04,5377.87 4559.71,5697.54 4838,6017.5C 5160.63,5651.87 5483.63,5286.54 5807,4921.5C 5807.5,5619.5 5807.67,6317.5 5807.5,7015.5C 5164.83,7015.5 4522.17,7015.5 3879.5,7015.5C 3879.5,6317.5 3879.5,5619.5 3879.5,4921.5 Z"/></g>
<g><path style="opacity:0.987" fill="#fefffe" d="M 4602.5,5072.5 C 4658.17,5072.5 4713.83,5072.5 4769.5,5072.5C 4769.5,5128.17 4769.5,5183.83 4769.5,5239.5C 4713.83,5239.5 4658.17,5239.5 4602.5,5239.5C 4602.5,5183.83 4602.5,5128.17 4602.5,5072.5 Z"/></g>
<g><path style="opacity:0.985" fill="#fefffe" d="M 4917.5,5072.5 C 4973.17,5072.5 5028.83,5072.5 5084.5,5072.5C 5084.5,5128.17 5084.5,5183.83 5084.5,5239.5C 5028.83,5239.5 4973.17,5239.5 4917.5,5239.5C 4917.5,5183.83 4917.5,5128.17 4917.5,5072.5 Z"/></g>
<g><path style="opacity:0.975" fill="#fefffe" d="M 1915.5,7345.5 C 1958.65,7342.43 1999.32,7350.93 2037.5,7371C 2055.67,7382.5 2071.33,7396.83 2084.5,7414C 2073.41,7423.29 2062.24,7432.46 2051,7441.5C 2021.35,7402.51 1981.68,7383.18 1932,7383.5C 1858.72,7384.61 1805.05,7417.28 1771,7481.5C 1747.07,7536.6 1744.73,7592.6 1764,7649.5C 1795.36,7724.05 1851.69,7762.38 1933,7764.5C 1980.42,7763.29 2020.08,7745.29 2052,7710.5C 2055.33,7705.83 2058.67,7701.17 2062,7696.5C 2072.5,7704.33 2083,7712.17 2093.5,7720C 2095.21,7721.13 2095.71,7722.63 2095,7724.5C 2054.58,7777.02 2000.92,7803.02 1934,7802.5C 1870.63,7802.73 1816.29,7781.06 1771,7737.5C 1729.73,7691.08 1709.23,7636.58 1709.5,7574C 1709.04,7503.67 1734.37,7444.67 1785.5,7397C 1823.39,7366.23 1866.72,7349.06 1915.5,7345.5 Z"/></g>
<g><path style="opacity:0.976" fill="#fefffe" d="M 2511.5,7345.5 C 2573.02,7341.12 2628.02,7357.62 2676.5,7395C 2723.19,7436.55 2749.02,7488.72 2754,7551.5C 2760.05,7620.32 2741.05,7680.99 2697,7733.5C 2651.29,7779.87 2595.62,7802.87 2530,7802.5C 2470.11,7802.88 2417.94,7783.38 2373.5,7744C 2335.12,7705.06 2312.95,7658.23 2307,7603.5C 2299.27,7537.76 2314.93,7478.43 2354,7425.5C 2395.21,7376.98 2447.71,7350.31 2511.5,7345.5 Z M 2510.5,7383.5 C 2572.2,7377.89 2624.37,7397.23 2667,7441.5C 2700.96,7483.71 2716.29,7532.04 2713,7586.5C 2710.28,7646.12 2685.78,7694.28 2639.5,7731C 2603.05,7755.87 2562.71,7766.87 2518.5,7764C 2454.85,7760.11 2406.35,7731.28 2373,7677.5C 2344.53,7622.14 2339.36,7564.64 2357.5,7505C 2383.84,7433.49 2434.84,7392.99 2510.5,7383.5 Z"/></g>
<g><path style="opacity:0.975" fill="#fefffe" d="M 3759.5,7345.5 C 3793.39,7342.98 3825.39,7349.48 3855.5,7365C 3870.56,7374.22 3883.22,7386.06 3893.5,7400.5C 3881.81,7409.36 3869.97,7418.03 3858,7426.5C 3833.4,7392.79 3800.23,7378.63 3758.5,7384C 3731.03,7386.15 3708.53,7397.65 3691,7418.5C 3674.42,7444.86 3672.08,7472.53 3684,7501.5C 3692.48,7514.34 3703.31,7524.84 3716.5,7533C 3727.42,7538.97 3738.75,7543.97 3750.5,7548C 3775.76,7555.23 3800.76,7563.23 3825.5,7572C 3885.26,7596.34 3909.43,7640.51 3898,7704.5C 3888.63,7747.21 3863.46,7776.38 3822.5,7792C 3775.17,7806.82 3728.5,7804.82 3682.5,7786C 3658.41,7774.75 3638.75,7758.25 3623.5,7736.5C 3636.2,7727.14 3649.2,7718.14 3662.5,7709.5C 3684.96,7746.24 3717.96,7764.58 3761.5,7764.5C 3793.07,7764.71 3819.57,7753.37 3841,7730.5C 3860.4,7704.13 3863.73,7675.79 3851,7645.5C 3838.41,7627.27 3821.58,7614.44 3800.5,7607C 3775.9,7598.47 3751.23,7590.13 3726.5,7582C 3700.71,7574.2 3678.55,7560.7 3660,7541.5C 3645.95,7524.37 3637.95,7504.71 3636,7482.5C 3631.28,7413.57 3662.11,7369.73 3728.5,7351C 3738.87,7348.55 3749.2,7346.71 3759.5,7345.5 Z"/></g>
<g><path style="opacity:0.975" fill="#fefffe" d="M 5961.5,7345.5 C 5997.46,7343.14 6032.12,7348.64 6065.5,7362C 6091.59,7373.76 6113.26,7391.09 6130.5,7414C 6119.32,7423.18 6108.16,7432.35 6097,7441.5C 6067.24,7402.46 6027.58,7383.12 5978,7383.5C 5892.97,7385.9 5835.97,7426.9 5807,7506.5C 5789.43,7565.69 5794.76,7622.69 5823,7677.5C 5858.83,7734.76 5910.83,7763.76 5979,7764.5C 6026.42,7763.29 6066.09,7745.29 6098,7710.5C 6101.33,7705.83 6104.67,7701.17 6108,7696.5C 6118.83,7704.67 6129.67,7712.83 6140.5,7721C 6141.52,7722.05 6141.68,7723.22 6141,7724.5C 6106.61,7770.12 6060.78,7795.62 6003.5,7801C 5939.77,7807.3 5882.77,7790.97 5832.5,7752C 5788.71,7712.26 5763.54,7662.76 5757,7603.5C 5749.27,7537.76 5764.93,7478.43 5804,7425.5C 5845.21,7376.98 5897.71,7350.31 5961.5,7345.5 Z"/></g>
<g><path style="opacity:0.977" fill="#fefffe" d="M 7397.5,7345.5 C 7458.44,7341.23 7513.11,7357.39 7561.5,7394C 7608.19,7435.2 7634.35,7487.04 7640,7549.5C 7646.03,7612.4 7630.7,7669.4 7594,7720.5C 7554.62,7768.44 7503.79,7795.28 7441.5,7801C 7376.54,7807.6 7318.54,7790.93 7267.5,7751C 7216.35,7703.16 7191.01,7644 7191.5,7573.5C 7191.21,7500.77 7218.21,7440.61 7272.5,7393C 7309.46,7364.85 7351.13,7349.01 7397.5,7345.5 Z M 7397.5,7383.5 C 7449.59,7378.93 7495.92,7392.76 7536.5,7425C 7572.22,7457.6 7592.72,7498.1 7598,7546.5C 7605.54,7607.51 7589.87,7661.51 7551,7708.5C 7510.78,7749.03 7461.94,7767.53 7404.5,7764C 7320.74,7757.05 7266.24,7713.55 7241,7633.5C 7225.92,7575.97 7232.25,7520.97 7260,7468.5C 7291.85,7417.87 7337.68,7389.54 7397.5,7383.5 Z"/></g>
<g><path style="opacity:0.986" fill="#fefffe" d="M 3009.5,7356.5 C 3027.17,7356.33 3044.84,7356.5 3062.5,7357C 3150.46,7483.08 3238.29,7609.25 3326,7735.5C 3326.5,7609.17 3326.67,7482.83 3326.5,7356.5C 3340.17,7356.5 3353.83,7356.5 3367.5,7356.5C 3367.5,7501.5 3367.5,7646.5 3367.5,7791.5C 3349.82,7791.83 3332.15,7791.5 3314.5,7790.5C 3226.67,7664.17 3138.83,7537.83 3051,7411.5C 3050.5,7538.17 3050.33,7664.83 3050.5,7791.5C 3036.83,7791.5 3023.17,7791.5 3009.5,7791.5C 3009.5,7646.5 3009.5,7501.5 3009.5,7356.5 Z"/></g>
<g><path style="opacity:0.971" fill="#fefffe" d="M 4103.5,7356.5 C 4216.17,7356.5 4328.83,7356.5 4441.5,7356.5C 4441.5,7369.17 4441.5,7381.83 4441.5,7394.5C 4392.17,7394.5 4342.83,7394.5 4293.5,7394.5C 4293.5,7526.83 4293.5,7659.17 4293.5,7791.5C 4279.5,7791.5 4265.5,7791.5 4251.5,7791.5C 4251.5,7659.17 4251.5,7526.83 4251.5,7394.5C 4202.17,7394.5 4152.83,7394.5 4103.5,7394.5C 4103.5,7381.83 4103.5,7369.17 4103.5,7356.5 Z"/></g>
<g><path style="opacity:0.979" fill="#fefffe" d="M 4672.5,7356.5 C 4718.17,7356.33 4763.83,7356.5 4809.5,7357C 4839.56,7357.93 4867.89,7365.26 4894.5,7379C 4926.28,7401.22 4941.95,7431.89 4941.5,7471C 4940.34,7527.15 4912.68,7562.48 4858.5,7577C 4849.49,7579.23 4840.49,7581.4 4831.5,7583.5C 4873.42,7652.33 4915.08,7721.33 4956.5,7790.5C 4940.83,7791.83 4925.17,7791.83 4909.5,7790.5C 4869.17,7722.5 4828.83,7654.5 4788.5,7586.5C 4763.51,7585.5 4738.51,7585.17 4713.5,7585.5C 4713.5,7654.17 4713.5,7722.83 4713.5,7791.5C 4699.83,7791.5 4686.17,7791.5 4672.5,7791.5C 4672.5,7646.5 4672.5,7501.5 4672.5,7356.5 Z M 4713.5,7394.5 C 4748.17,7394.33 4782.83,7394.5 4817.5,7395C 4844.91,7396.63 4867.74,7407.46 4886,7427.5C 4899.8,7448.2 4903.14,7470.54 4896,7494.5C 4887.86,7515.97 4873.03,7530.81 4851.5,7539C 4839.28,7543.71 4826.61,7546.38 4813.5,7547C 4780.17,7547.5 4746.83,7547.67 4713.5,7547.5C 4713.5,7496.5 4713.5,7445.5 4713.5,7394.5 Z"/></g>
<g><path style="opacity:0.978" fill="#fefffe" d="M 5192.5,7356.5 C 5206.17,7356.5 5219.83,7356.5 5233.5,7356.5C 5233.33,7448.17 5233.5,7539.83 5234,7631.5C 5234.69,7662.59 5242.69,7691.59 5258,7718.5C 5280.19,7750.65 5311.03,7765.99 5350.5,7764.5C 5406.68,7763.66 5442.85,7736.32 5459,7682.5C 5463.25,7665.75 5465.92,7648.75 5467,7631.5C 5467.5,7539.83 5467.67,7448.17 5467.5,7356.5C 5481.5,7356.5 5495.5,7356.5 5509.5,7356.5C 5509.67,7447.5 5509.5,7538.5 5509,7629.5C 5509.27,7665.82 5501.27,7700.15 5485,7732.5C 5461.69,7771.1 5427.53,7793.6 5382.5,7800C 5354.26,7803.74 5326.26,7802.4 5298.5,7796C 5243.29,7778.11 5209.79,7740.61 5198,7683.5C 5195.68,7672.26 5194.01,7660.93 5193,7649.5C 5192.5,7551.83 5192.33,7454.17 5192.5,7356.5 Z"/></g>
<g><path style="opacity:0.971" fill="#fefffe" d="M 6327.5,7356.5 C 6440.17,7356.5 6552.83,7356.5 6665.5,7356.5C 6665.5,7369.17 6665.5,7381.83 6665.5,7394.5C 6616.17,7394.5 6566.83,7394.5 6517.5,7394.5C 6517.5,7526.83 6517.5,7659.17 6517.5,7791.5C 6503.5,7791.5 6489.5,7791.5 6475.5,7791.5C 6475.5,7659.17 6475.5,7526.83 6475.5,7394.5C 6426.17,7394.5 6376.83,7394.5 6327.5,7394.5C 6327.5,7381.83 6327.5,7369.17 6327.5,7356.5 Z"/></g>
<g><path style="opacity:0.968" fill="#fefffe" d="M 6895.5,7356.5 C 6909.5,7356.5 6923.5,7356.5 6937.5,7356.5C 6937.5,7501.5 6937.5,7646.5 6937.5,7791.5C 6923.5,7791.5 6909.5,7791.5 6895.5,7791.5C 6895.5,7646.5 6895.5,7501.5 6895.5,7356.5 Z"/></g>
<g><path style="opacity:0.978" fill="#fefffe" d="M 7895.5,7356.5 C 7913.17,7356.33 7930.84,7356.5 7948.5,7357C 8036.46,7483.08 8124.29,7609.25 8212,7735.5C 8212.5,7609.17 8212.67,7482.83 8212.5,7356.5C 8226.5,7356.5 8240.5,7356.5 8254.5,7356.5C 8254.5,7501.5 8254.5,7646.5 8254.5,7791.5C 8236.49,7791.83 8218.49,7791.5 8200.5,7790.5C 8112.67,7664.17 8024.83,7537.83 7937,7411.5C 7936.5,7538.17 7936.33,7664.83 7936.5,7791.5C 7922.83,7791.5 7909.17,7791.5 7895.5,7791.5C 7895.5,7646.5 7895.5,7501.5 7895.5,7356.5 Z"/></g>
</svg>
